<svg xmlns="http://www.w3.org/2000/svg" viewBox="0 0 24 24">
  <path fill="#C5C5C5" d="M3 21v-5c0-2.2 1.3-4.2 3.4-5.1l9.5-4.1C17.2 6.2 18 5 18 3.5V3h3v.5c0 2.7-1.6 5.2-4.1 6.3l-9.5 4.1C6.5 14.3 6 15.1 6 16v5H3Z"/>
  <path fill="#C5C5C5" d="M10.5 21v-5c0-.9-.5-1.7-1.4-2.1l-2.4-1A6.2 6.2 0 0 1 3 7.2V3h3v4.2c0 1.2.7 2.3 1.8 2.8l2.4 1c2 .9 3.3 2.8 3.3 5v5h-3Z"/>
  <path fill="#C5C5C5" d="M18 21v-5c0-.9-.5-1.7-1.4-2.1l-2.4-1A6.8 6.8 0 0 1 10 6.6V3h3v3.6c0 1.5.8 2.7 2.1 3.3l2.4 1c2.1.9 3.5 2.9 3.5 5.1v5h-3Z"/>
</svg>
