<svg width="12" height="12" viewBox="0 0 12 12" fill="none" xmlns="http://www.w3.org/2000/svg">
<rect width="12" height="12" fill="#F5F5F5"/>
<g id="temp-export-at-sign" clip-path="url(#clip0_0_1)">
<path id="Vector" d="M8.00016 3.99982V6.50001C8.00016 6.89787 8.15821 7.27943 8.43954 7.56076C8.72087 7.84209 9.10243 8.00013 9.50028 8.00013C9.89814 8.00013 10.2797 7.84209 10.561 7.56076C10.8424 7.27943 11.0004 6.89787 11.0004 6.50001V5.99997C11.0004 4.87354 10.6201 3.7801 9.92102 2.89681C9.22197 2.01353 8.24517 1.39214 7.14886 1.13334C6.05256 0.87454 4.90099 0.99348 3.88072 1.47089C2.86046 1.9483 2.03127 2.75621 1.52752 3.76373C1.02376 4.77124 0.874938 5.91934 1.10517 7.022C1.3354 8.12465 1.93119 9.11728 2.79601 9.83904C3.66084 10.5608 4.74403 10.9694 5.87008 10.9987C6.99614 11.028 8.09909 10.6762 9.00024 10.0003M8.00016 5.99997C8.00016 7.10463 7.10466 8.00013 6 8.00013C4.89534 8.00013 3.99984 7.10463 3.99984 5.99997C3.99984 4.89531 4.89534 3.99981 6 3.99981C7.10466 3.99981 8.00016 4.89531 8.00016 5.99997Z" stroke="#D4956A" stroke-width="2" stroke-linecap="round"/>
</g>
<defs>
<clipPath id="clip0_0_1">
<rect width="12" height="12" fill="white"/>
</clipPath>
</defs>
</svg>
