<svg width="12" height="12" viewBox="0 0 12 12" fill="none" xmlns="http://www.w3.org/2000/svg">
<rect width="12" height="12" fill="#F5F5F5"/>
<g id="temp-export-bookmark">
<path id="Vector" d="M9.20748 1.7929C9.01992 1.60536 8.76554 1.5 8.50029 1.5H3.49972C3.23447 1.5 2.98009 1.60536 2.79253 1.7929C2.60497 1.98044 2.4996 2.2348 2.4996 2.50002V10.0002C2.49963 10.0877 2.52266 10.1737 2.56637 10.2496C2.61009 10.3255 2.67296 10.3885 2.7487 10.4325C2.82445 10.4764 2.9104 10.4997 2.99797 10.5C3.08554 10.5003 3.17165 10.4776 3.24769 10.4342L5.50395 9.14514C5.65503 9.05885 5.82601 9.01346 6 9.01346C6.174 9.01346 6.34498 9.05885 6.49606 9.14514L8.75232 10.4342C8.82836 10.4776 8.91447 10.5003 9.00204 10.5C9.08961 10.4997 9.17556 10.4764 9.2513 10.4325C9.32705 10.3885 9.38992 10.3255 9.43364 10.2496C9.47735 10.1737 9.50038 10.0877 9.5004 10.0002V2.50002C9.5004 2.2348 9.39503 1.98044 9.20748 1.7929Z" stroke="#6B6B75" stroke-width="2" stroke-linecap="round"/>
</g>
</svg>
