<svg preserveAspectRatio="none" width="100%" height="100%" overflow="visible" style="display: block;" viewBox="0 0 18 18" fill="none" xmlns="http://www.w3.org/2000/svg">
<g id="bug-icon">
<path id="Vector" d="M8 13.3333V7.33305M8 13.3333C9.06095 13.3333 10.0784 12.9119 10.8287 12.1617C11.5789 11.4115 12.0003 10.394 12.0003 9.33314V7.33305C12.0003 6.62578 11.7193 5.94747 11.2192 5.44736C10.7191 4.94724 10.0407 4.66627 9.33344 4.66627H6.66656C5.95926 4.66627 5.28093 4.94724 4.78079 5.44736C4.28065 5.94747 3.99968 6.62578 3.99968 7.33305V9.33314C3.99968 10.394 4.42114 11.4115 5.17135 12.1617C5.92155 12.9119 6.93905 13.3333 8 13.3333ZM9.41353 2.58619L10.667 1.3328M14.0008 14C14.0015 13.3141 13.738 12.6543 13.265 12.1577C12.7919 11.6611 12.1457 11.3658 11.4606 11.3332M14.0006 3.33288C13.9999 3.98768 13.7582 4.61931 13.3217 5.10742C12.8852 5.59553 12.2844 5.906 11.6338 5.97966M14.6672 8.66644H12.0003M1.99952 14C1.99875 13.3141 2.26227 12.6543 2.73533 12.1577C3.20838 11.6611 3.85461 11.3658 4.53972 11.3332M1.99952 3.33288C2.00027 3.98768 2.24192 4.61931 2.67841 5.10742C3.11489 5.59553 3.71571 5.906 4.36638 5.97966M3.99968 8.66644H1.3328M5.33312 1.3328L6.58655 2.58619M5.99984 4.75294V3.99958C5.99984 3.46912 6.21057 2.96039 6.58567 2.58531C6.96078 2.21022 7.46952 1.99949 8 1.99949C8.53048 1.99949 9.03922 2.21022 9.41433 2.58531C9.78943 2.96039 10.0002 3.46912 10.0002 3.99958V4.75294" stroke="var(--stroke-0, #A1A1AA)" stroke-linecap="round"/>
</g>
</svg>
