<svg width="16" height="16" viewBox="0 0 16 16" fill="none" xmlns="http://www.w3.org/2000/svg">
<rect width="16" height="16" fill="#F5F5F5"/>
<g id="temp-export-ellipsis-vertical">
<g id="Vector">
<path d="M7.99999 8.66658C8.36848 8.66658 8.66719 8.36813 8.66719 7.99998C8.66719 7.63182 8.36848 7.33337 7.99999 7.33337C7.63151 7.33337 7.33279 7.63182 7.33279 7.99998C7.33279 8.36813 7.63151 8.66658 7.99999 8.66658Z" stroke="#A1A1AA" stroke-width="2" stroke-linecap="round"/>
<path d="M7.99999 4.00038C8.36848 4.00038 8.66719 3.70193 8.66719 3.33378C8.66719 2.96562 8.36848 2.66718 7.99999 2.66718C7.63151 2.66718 7.33279 2.96562 7.33279 3.33378C7.33279 3.70193 7.63151 4.00038 7.99999 4.00038Z" stroke="#A1A1AA" stroke-width="2" stroke-linecap="round"/>
<path d="M7.99999 13.3328C8.36848 13.3328 8.66719 13.0343 8.66719 12.6662C8.66719 12.298 8.36848 11.9996 7.99999 11.9996C7.63151 11.9996 7.33279 12.298 7.33279 12.6662C7.33279 13.0343 7.63151 13.3328 7.99999 13.3328Z" stroke="#A1A1AA" stroke-width="2" stroke-linecap="round"/>
</g>
</g>
</svg>
