<svg width="12" height="12" viewBox="0 0 12 12" fill="none" xmlns="http://www.w3.org/2000/svg">
<rect width="12" height="12" fill="#F5F5F5"/>
<g id="temp-export-flag">
<path id="Vector" d="M2.0004 11.0004V1.99965C2.0004 1.92202 2.01847 1.84546 2.05318 1.77603C2.08789 1.70659 2.13828 1.6462 2.20038 1.59962C2.71961 1.21012 3.35115 0.999573 4.0002 0.999573C5.50005 0.999573 6.49995 1.99965 7.66633 1.99965C8.33293 1.99965 8.84405 1.86631 9.19968 1.59962C9.27395 1.5439 9.36228 1.50997 9.45475 1.50163C9.54722 1.49329 9.64019 1.51087 9.72323 1.5524C9.80628 1.59393 9.87612 1.65777 9.92493 1.73677C9.97374 1.81576 9.9996 1.90679 9.9996 1.99965V7.00005C9.9996 7.07768 9.98153 7.15424 9.94682 7.22368C9.9121 7.29311 9.86171 7.35351 9.79962 7.40008C9.28038 7.78958 8.64884 8.00013 7.9998 8.00013C6.49995 8.00013 5.50005 7.00005 4.0002 7.00005C3.26233 7.00007 2.55035 7.27209 2.0004 7.76411" stroke="#6B6B75" stroke-width="2" stroke-linecap="round"/>
</g>
</svg>
