<svg width="14" height="14" viewBox="0 0 14 14" fill="none" xmlns="http://www.w3.org/2000/svg">
<rect width="14" height="14" fill="#F5F5F5"/>
<g id="temp-export-loader-pinwheel" clip-path="url(#clip0_0_1)">
<path id="Vector" d="M12.8338 7C12.8338 7.77361 12.5265 8.51553 11.9795 9.06256C11.4324 9.60958 10.6905 9.9169 9.9169 9.9169C9.14329 9.9169 8.40136 9.60958 7.85434 9.06256C7.30731 8.51553 7 7.77361 7 7M12.8338 7C12.8338 10.2219 10.2219 12.8338 7 12.8338C3.77808 12.8338 1.1662 10.2219 1.1662 7M12.8338 7C12.8338 3.77808 10.2219 1.1662 7 1.1662C3.77808 1.1662 1.1662 3.77808 1.1662 7M7 7C7 6.22639 6.69268 5.48446 6.14566 4.93744C5.59863 4.39041 4.85671 4.0831 4.0831 4.0831C3.30949 4.0831 2.56756 4.39041 2.02054 4.93744C1.47351 5.48446 1.1662 6.22639 1.1662 7M7 7C6.32696 6.61319 5.52762 6.50982 4.7782 6.71222C4.02878 6.91462 3.39045 7.40644 3.00364 8.07948C2.61684 8.75252 2.51324 9.55165 2.71564 10.3011C2.91804 11.0505 3.40986 11.6888 4.0829 12.0756M7 7C7.32942 7.19153 7.69315 7.31652 8.07079 7.3674C8.44843 7.41828 8.8324 7.39428 9.20077 7.29677C9.56914 7.19926 9.91469 7.03015 10.2177 6.7991C10.5207 6.56804 10.7753 6.27957 10.9668 5.95014C11.1583 5.62072 11.2831 5.25679 11.334 4.87915C11.3848 4.50151 11.3608 4.11754 11.2633 3.74917C11.1658 3.3808 10.9967 3.03525 10.7657 2.73223C10.5346 2.42922 10.2461 2.17469 9.9167 1.98316M4.0831 1.92455C4.7484 1.53774 5.54012 1.43107 6.28407 1.628C7.02802 1.82493 7.66328 2.30933 8.05008 2.97463C8.43689 3.63994 8.54356 4.43165 8.34663 5.1756C8.1497 5.91956 7.6653 6.55481 7 6.94162C6.33469 7.32842 5.8503 7.96367 5.65337 8.70763C5.45644 9.45158 5.56311 10.2433 5.94991 10.9086C6.33672 11.5739 6.97197 12.0583 7.71593 12.2552C8.45988 12.4522 9.25159 12.3455 9.9169 11.9587" stroke="#A1A1AA" stroke-width="2" stroke-linecap="round"/>
</g>
<defs>
<clipPath id="clip0_0_1">
<rect width="14" height="14" fill="white"/>
</clipPath>
</defs>
</svg>
