<svg width="14" height="14" viewBox="0 0 14 14" fill="none" xmlns="http://www.w3.org/2000/svg">
<rect width="14" height="14" fill="#F5F5F5"/>
<g id="temp-export-prio-low">
<path id="Vector" d="M3 10H1.5C1.22386 10 1 10.2239 1 10.5V12.5C1 12.7761 1.22386 13 1.5 13H3C3.27614 13 3.5 12.7761 3.5 12.5V10.5C3.5 10.2239 3.27614 10 3 10Z" fill="#646464"/>
<path id="Vector_2" d="M7.5 6.5H6C5.72386 6.5 5.5 6.72386 5.5 7V12.5C5.5 12.7761 5.72386 13 6 13H7.5C7.77614 13 8 12.7761 8 12.5V7C8 6.72386 7.77614 6.5 7.5 6.5Z" fill="#333333"/>
<path id="Vector_3" d="M12 2H10.5C10.2239 2 10 2.22386 10 2.5V12.5C10 12.7761 10.2239 13 10.5 13H12C12.2761 13 12.5 12.7761 12.5 12.5V2.5C12.5 2.22386 12.2761 2 12 2Z" fill="#333333"/>
</g>
</svg>
